<mxfile host="app.diagrams.net" agent="Mozilla/5.0 (Windows NT 10.0; Win64; x64) AppleWebKit/537.36 (KHTML, like Gecko) Chrome/140.0.0.0 Safari/537.36" version="28.2.7">
  <diagram name="Página-1" id="mlwEB4e_-GYOSPZi37gQ">
    <mxGraphModel dx="4296" dy="629" grid="1" gridSize="10" guides="1" tooltips="1" connect="1" arrows="1" fold="1" page="1" pageScale="1" pageWidth="827" pageHeight="1169" math="0" shadow="0">
      <root>
        <mxCell id="0" />
        <mxCell id="1" parent="0" />
        <mxCell id="cuhyfVlYK678dZtKNG9p-2" value="ALUNO" style="swimlane;childLayout=stackLayout;horizontal=1;startSize=50;horizontalStack=0;rounded=1;fontSize=14;fontStyle=0;strokeWidth=2;resizeParent=0;resizeLast=1;shadow=0;dashed=0;align=center;arcSize=4;whiteSpace=wrap;html=1;" parent="1" vertex="1">
          <mxGeometry x="-2310" y="190" width="160" height="150" as="geometry" />
        </mxCell>
        <mxCell id="cuhyfVlYK678dZtKNG9p-3" value="&lt;u&gt;NumAluno&lt;/u&gt;&lt;div&gt;NomeAluno&lt;/div&gt;&lt;div&gt;DataNascimento&lt;/div&gt;&lt;div&gt;CodCurso&lt;/div&gt;&lt;div&gt;iniciou&lt;/div&gt;&lt;div&gt;Concluiu ?&lt;/div&gt;" style="align=left;strokeColor=none;fillColor=none;spacingLeft=4;spacingRight=4;fontSize=12;verticalAlign=top;resizable=0;rotatable=0;part=1;html=1;whiteSpace=wrap;" parent="cuhyfVlYK678dZtKNG9p-2" vertex="1">
          <mxGeometry y="50" width="160" height="100" as="geometry" />
        </mxCell>
        <mxCell id="cuhyfVlYK678dZtKNG9p-4" value="CURSO" style="swimlane;childLayout=stackLayout;horizontal=1;startSize=50;horizontalStack=0;rounded=1;fontSize=14;fontStyle=0;strokeWidth=2;resizeParent=0;resizeLast=1;shadow=0;dashed=0;align=center;arcSize=4;whiteSpace=wrap;html=1;" parent="1" vertex="1">
          <mxGeometry x="-2520" y="350" width="160" height="120" as="geometry" />
        </mxCell>
        <mxCell id="cuhyfVlYK678dZtKNG9p-5" value="&lt;u&gt;CodCurso&lt;/u&gt;&lt;div&gt;NomeCurso&lt;/div&gt;&lt;div&gt;&lt;br&gt;&lt;/div&gt;" style="align=left;strokeColor=none;fillColor=none;spacingLeft=4;spacingRight=4;fontSize=12;verticalAlign=top;resizable=0;rotatable=0;part=1;html=1;whiteSpace=wrap;" parent="cuhyfVlYK678dZtKNG9p-4" vertex="1">
          <mxGeometry y="50" width="160" height="70" as="geometry" />
        </mxCell>
        <mxCell id="cuhyfVlYK678dZtKNG9p-6" value="DISCIPLINA" style="swimlane;childLayout=stackLayout;horizontal=1;startSize=50;horizontalStack=0;rounded=1;fontSize=14;fontStyle=0;strokeWidth=2;resizeParent=0;resizeLast=1;shadow=0;dashed=0;align=center;arcSize=4;whiteSpace=wrap;html=1;" parent="1" vertex="1">
          <mxGeometry x="-2120" y="390" width="160" height="120" as="geometry" />
        </mxCell>
        <mxCell id="cuhyfVlYK678dZtKNG9p-7" value="&lt;div&gt;&lt;u&gt;CodDisciplina&lt;/u&gt;&lt;/div&gt;&lt;div&gt;Disciplina&lt;/div&gt;" style="align=left;strokeColor=none;fillColor=none;spacingLeft=4;spacingRight=4;fontSize=12;verticalAlign=top;resizable=0;rotatable=0;part=1;html=1;whiteSpace=wrap;" parent="cuhyfVlYK678dZtKNG9p-6" vertex="1">
          <mxGeometry y="50" width="160" height="70" as="geometry" />
        </mxCell>
        <mxCell id="cuhyfVlYK678dZtKNG9p-98" style="edgeStyle=orthogonalEdgeStyle;rounded=0;orthogonalLoop=1;jettySize=auto;html=1;exitX=0;exitY=0.5;exitDx=0;exitDy=0;entryX=0;entryY=0.863;entryDx=0;entryDy=0;entryPerimeter=0;" parent="1" source="cuhyfVlYK678dZtKNG9p-8" target="cuhyfVlYK678dZtKNG9p-13" edge="1">
          <mxGeometry relative="1" as="geometry">
            <mxPoint x="-2080" y="267.5" as="targetPoint" />
            <Array as="points">
              <mxPoint x="-1920" y="420" />
              <mxPoint x="-1920" y="290" />
            </Array>
          </mxGeometry>
        </mxCell>
        <mxCell id="cuhyfVlYK678dZtKNG9p-8" value="MÓDULO" style="swimlane;childLayout=stackLayout;horizontal=1;startSize=50;horizontalStack=0;rounded=1;fontSize=14;fontStyle=0;strokeWidth=2;resizeParent=0;resizeLast=1;shadow=0;dashed=0;align=center;arcSize=4;whiteSpace=wrap;html=1;" parent="1" vertex="1">
          <mxGeometry x="-1860" y="360" width="160" height="120" as="geometry" />
        </mxCell>
        <mxCell id="cuhyfVlYK678dZtKNG9p-9" value="&lt;u&gt;CodModulo&lt;/u&gt;&lt;div&gt;Descricao&lt;/div&gt;&lt;div&gt;CodDisciplina&lt;/div&gt;&lt;div&gt;Email&lt;/div&gt;" style="align=left;strokeColor=none;fillColor=none;spacingLeft=4;spacingRight=4;fontSize=12;verticalAlign=top;resizable=0;rotatable=0;part=1;html=1;whiteSpace=wrap;" parent="cuhyfVlYK678dZtKNG9p-8" vertex="1">
          <mxGeometry y="50" width="160" height="70" as="geometry" />
        </mxCell>
        <mxCell id="cuhyfVlYK678dZtKNG9p-10" value="PROFESSOR" style="swimlane;childLayout=stackLayout;horizontal=1;startSize=50;horizontalStack=0;rounded=1;fontSize=14;fontStyle=0;strokeWidth=2;resizeParent=0;resizeLast=1;shadow=0;dashed=0;align=center;arcSize=4;whiteSpace=wrap;html=1;" parent="1" vertex="1">
          <mxGeometry x="-1860" y="510" width="160" height="120" as="geometry" />
        </mxCell>
        <mxCell id="cuhyfVlYK678dZtKNG9p-11" value="&lt;u&gt;Email&lt;/u&gt;&lt;div&gt;Nome&lt;/div&gt;" style="align=left;strokeColor=none;fillColor=none;spacingLeft=4;spacingRight=4;fontSize=12;verticalAlign=top;resizable=0;rotatable=0;part=1;html=1;whiteSpace=wrap;" parent="cuhyfVlYK678dZtKNG9p-10" vertex="1">
          <mxGeometry y="50" width="160" height="70" as="geometry" />
        </mxCell>
        <mxCell id="cuhyfVlYK678dZtKNG9p-12" value="NOTA" style="swimlane;childLayout=stackLayout;horizontal=1;startSize=50;horizontalStack=0;rounded=1;fontSize=14;fontStyle=0;strokeWidth=2;resizeParent=0;resizeLast=1;shadow=0;dashed=0;align=center;arcSize=4;whiteSpace=wrap;html=1;" parent="1" vertex="1">
          <mxGeometry x="-1860" y="170" width="160" height="130" as="geometry" />
        </mxCell>
        <mxCell id="cuhyfVlYK678dZtKNG9p-13" value="&lt;div&gt;&lt;u&gt;IdNota&lt;/u&gt;&lt;/div&gt;Valor&lt;div&gt;DataNota&lt;/div&gt;&lt;div&gt;NumAluno&lt;/div&gt;&lt;div&gt;CodModulo&lt;/div&gt;" style="align=left;strokeColor=none;fillColor=none;spacingLeft=4;spacingRight=4;fontSize=12;verticalAlign=top;resizable=0;rotatable=0;part=1;html=1;whiteSpace=wrap;" parent="cuhyfVlYK678dZtKNG9p-12" vertex="1">
          <mxGeometry y="50" width="160" height="80" as="geometry" />
        </mxCell>
        <mxCell id="cuhyfVlYK678dZtKNG9p-74" style="edgeStyle=orthogonalEdgeStyle;rounded=0;orthogonalLoop=1;jettySize=auto;html=1;exitX=0;exitY=0.75;exitDx=0;exitDy=0;entryX=1;entryY=0.25;entryDx=0;entryDy=0;" parent="1" source="cuhyfVlYK678dZtKNG9p-8" target="cuhyfVlYK678dZtKNG9p-7" edge="1">
          <mxGeometry relative="1" as="geometry">
            <mxPoint x="-1800" y="585" as="targetPoint" />
          </mxGeometry>
        </mxCell>
        <mxCell id="cuhyfVlYK678dZtKNG9p-77" style="edgeStyle=orthogonalEdgeStyle;rounded=0;orthogonalLoop=1;jettySize=auto;html=1;exitX=0;exitY=0.75;exitDx=0;exitDy=0;entryX=0;entryY=0.5;entryDx=0;entryDy=0;" parent="1" source="cuhyfVlYK678dZtKNG9p-9" target="cuhyfVlYK678dZtKNG9p-10" edge="1">
          <mxGeometry relative="1" as="geometry">
            <mxPoint x="-1560" y="500" as="targetPoint" />
          </mxGeometry>
        </mxCell>
        <mxCell id="sdPajQuEfWPrJSfAEs_O-6" style="edgeStyle=orthogonalEdgeStyle;rounded=0;orthogonalLoop=1;jettySize=auto;html=1;exitX=1;exitY=0.5;exitDx=0;exitDy=0;entryX=0;entryY=0.25;entryDx=0;entryDy=0;" edge="1" parent="1" source="cuhyfVlYK678dZtKNG9p-79" target="cuhyfVlYK678dZtKNG9p-7">
          <mxGeometry relative="1" as="geometry" />
        </mxCell>
        <mxCell id="cuhyfVlYK678dZtKNG9p-79" value="R3" style="swimlane;childLayout=stackLayout;horizontal=1;startSize=50;horizontalStack=0;rounded=1;fontSize=14;fontStyle=0;strokeWidth=2;resizeParent=0;resizeLast=1;shadow=0;dashed=0;align=center;arcSize=4;whiteSpace=wrap;html=1;" parent="1" vertex="1">
          <mxGeometry x="-2320" y="480" width="160" height="120" as="geometry" />
        </mxCell>
        <mxCell id="cuhyfVlYK678dZtKNG9p-80" value="&lt;u&gt;CodDisciplina&lt;/u&gt;&lt;div&gt;&lt;u&gt;CodCurso&lt;/u&gt;&lt;u&gt;&lt;/u&gt;&lt;/div&gt;" style="align=left;strokeColor=none;fillColor=none;spacingLeft=4;spacingRight=4;fontSize=12;verticalAlign=top;resizable=0;rotatable=0;part=1;html=1;whiteSpace=wrap;" parent="cuhyfVlYK678dZtKNG9p-79" vertex="1">
          <mxGeometry y="50" width="160" height="70" as="geometry" />
        </mxCell>
        <mxCell id="cuhyfVlYK678dZtKNG9p-85" style="edgeStyle=orthogonalEdgeStyle;rounded=0;orthogonalLoop=1;jettySize=auto;html=1;exitX=0;exitY=0.5;exitDx=0;exitDy=0;entryX=0;entryY=0.5;entryDx=0;entryDy=0;" parent="1" source="cuhyfVlYK678dZtKNG9p-3" target="cuhyfVlYK678dZtKNG9p-4" edge="1">
          <mxGeometry relative="1" as="geometry">
            <mxPoint x="-2600.8" y="560.2199999999998" as="targetPoint" />
          </mxGeometry>
        </mxCell>
        <mxCell id="sdPajQuEfWPrJSfAEs_O-3" style="edgeStyle=orthogonalEdgeStyle;rounded=0;orthogonalLoop=1;jettySize=auto;html=1;exitX=0;exitY=0.75;exitDx=0;exitDy=0;entryX=1.025;entryY=0.12;entryDx=0;entryDy=0;entryPerimeter=0;" edge="1" parent="1" source="cuhyfVlYK678dZtKNG9p-13" target="cuhyfVlYK678dZtKNG9p-3">
          <mxGeometry relative="1" as="geometry" />
        </mxCell>
        <mxCell id="sdPajQuEfWPrJSfAEs_O-7" style="edgeStyle=orthogonalEdgeStyle;rounded=0;orthogonalLoop=1;jettySize=auto;html=1;exitX=0;exitY=0.5;exitDx=0;exitDy=0;entryX=1;entryY=0.25;entryDx=0;entryDy=0;" edge="1" parent="1" source="cuhyfVlYK678dZtKNG9p-80" target="cuhyfVlYK678dZtKNG9p-5">
          <mxGeometry relative="1" as="geometry" />
        </mxCell>
      </root>
    </mxGraphModel>
  </diagram>
</mxfile>
